<?xml version="1.0" encoding="iso-8859-1"?>
<!-- Generator: Adobe Illustrator 19.0.0, SVG Export Plug-In . SVG Version: 6.00 Build 0)  -->
<svg version="1.1" id="Layer_1" xmlns="http://www.w3.org/2000/svg" xmlns:xlink="http://www.w3.org/1999/xlink" x="0px" y="0px"
	 viewBox="0 0 512 512" style="enable-background:new 0 0 512 512;" xml:space="preserve">
<g>
	<circle style="fill:#A0EBFF;" cx="256" cy="256" r="256"/>
	<rect x="182.774" y="179.558" style="fill:#D03E00;" width="153.303" height="213.868"/>
	<rect x="259.425" y="179.558" style="fill:#9C2E00;" width="76.652" height="213.868"/>
	<rect x="182.774" y="179.558" style="fill:#C3D63C;" width="153.303" height="44.165"/>
	<rect x="259.425" y="179.558" style="fill:#A5B81E;" width="76.652" height="44.165"/>
	<rect x="219.884" y="142.618" style="fill:#FDF35A;" width="77.87" height="36.956"/>
	<rect x="259.425" y="142.618" style="fill:#F7BF00;" width="38.328" height="36.956"/>
	<rect x="182.774" y="393.446" style="fill:#FDF35A;" width="153.303" height="13.466"/>
	<rect x="259.425" y="393.446" style="fill:#F7BF00;" width="76.652" height="13.466"/>
	<path style="fill:#335872;" d="M270.802,69.53V41.385h-20.736V69.53h-28.14v20.736h28.14v28.145h20.736V90.266h28.145V69.53
		C298.947,69.53,270.802,69.53,270.802,69.53z M221.921,463.693h77.02v-20.736h-77.02V463.693z"/>
	<path style="fill:#153040;" d="M270.802,69.53V41.385h-10.368v77.02h10.368v-28.14h28.145V69.53
		C298.947,69.53,270.802,69.53,270.802,69.53z M260.434,463.693h38.513v-20.736h-38.513V463.693z"/>
</g>
<g>
</g>
<g>
</g>
<g>
</g>
<g>
</g>
<g>
</g>
<g>
</g>
<g>
</g>
<g>
</g>
<g>
</g>
<g>
</g>
<g>
</g>
<g>
</g>
<g>
</g>
<g>
</g>
<g>
</g>
</svg>
