<svg xmlns="http://www.w3.org/2000/svg" viewBox="0 0 333333 244261" shape-rendering="geometricPrecision" text-rendering="geometricPrecision" image-rendering="optimizeQuality" fill-rule="evenodd" clip-rule="evenodd"><path d="M5635 72217h196179c3100 0 5635 2537 5635 5634v129965c0 3100-2535 5635-5635 5635H5635c-3097 0-5635-2535-5635-5635V77851c0-3097 2538-5635 5635-5635v1zm286633 52199h-7655v-15309h7655l668 15309zM103416 51714h-7655V36405h7655v15309zm-4178-22963h-3477v-7304h15659v7655H99588l-350-350zm19836 350v-7655h15309v7655h-15309zm22963 0v-7655h15309v7655h-15309zm22963 0v-7655h15309v7655h-15309zm22963 0v-7655h15309v7655h-15309zm22962 0v-7655h15309v7655h-15309zm21270 156470h13400v-7655h-13400l668 7655zm20386 0v-7655h15309v7655h-14641zm22294 0v-7655h11560v78h3828v7577h-15388zm15387-15231h-7655v-15309h7655l668 15309zm-668-22963h-7655v-15308h7655l668 15308zm30515-81470c136 0 272 0 380 27 841-1466 1602-3013 2307-4642 27-27 27-55 54-81 1031-2470 1846-5022 2362-7682 407-2063 679-4153 760-6325h-12433c-217 6325-2117 12541-5619 18676h12188v27zm-2171 3963h-12514c-3801 5511-8931 10940-15337 16315 1004-136 2009-298 2986-489 2687-543 5266-1330 7763-2416 2524-1086 4886-2362 7085-3827 2198-1466 4207-3122 6080-4995 1439-1439 2769-2959 3963-4588h-27zm-38519 16315c-6406-5375-11537-10804-15337-16315h-12514c1194 1629 2525 3149 3963 4588 1873 1873 3882 3529 6080 4994 2172 1466 4533 2742 7085 3828 27 28 54 28 81 54 2470 1031 5022 1846 7682 2362 977 190 1981 353 2986 489h-27zm-30457-20278h12596c-3502-6135-5402-12378-5619-18676h-12433c109 2172 353 4262 760 6325 543 2687 1330 5266 2416 7764 678 1602 1439 3122 2280 4587zm-5456-22639h12514c462-6189 2525-12406 6189-18676h-13247c-841 1466-1602 2986-2280 4587-27 28-27 54-54 81-1032 2470-1846 5022-2362 7682-407 2063-679 4153-760 6325zm8035-22639h13220c3773-5429 8741-10885 14930-16368-1113 135-2198 298-3257 515-2687 543-5266 1330-7763 2416-2524 1086-4886 2362-7085 3827-2199 1466-4207 3122-6080 4995-1439 1439-2769 2959-3963 4588v27zm38248-16368c6217 5483 11184 10939 14930 16368h13220c-1194-1628-2525-3149-3963-4587-1873-1873-3882-3529-6080-4995-2172-1466-4533-2742-7085-3827-27-27-54-27-81-55-2470-1031-5022-1846-7682-2361-1086-217-2172-380-3257-516v-27zm30728 20331h-13247c3665 6270 5728 12487 6189 18676h12514c-109-2172-353-4262-760-6325-543-2688-1330-5267-2416-7764-679-1602-1439-3122-2280-4587zM275646 894c2932-597 5972-896 9094-896s6135 299 9094 896c2904 570 5700 1439 8442 2606 27 0 81 27 108 54 2715 1167 5293 2579 7709 4180 2416 1602 4642 3448 6678 5483 2063 2036 3882 4262 5483 6678 1629 2416 3013 4995 4180 7709 1194 2769 2063 5619 2661 8551 597 2932 896 5972 896 9094s-298 6135-896 9093c-570 2905-1439 5701-2606 8443 0 27-27 81-55 109-1167 2742-2579 5293-4180 7709s-3447 4642-5483 6678c-2036 2063-4262 3881-6678 5483-2416 1629-4994 3013-7709 4180-2769 1194-5619 2063-8550 2661-2932 597-5972 895-9094 895-3121 0-6135-298-9094-895-2904-570-5700-1439-8442-2606-27 0-81-27-108-54-2715-1167-5293-2579-7709-4180-2416-1602-4642-3448-6678-5483-2063-2036-3882-4262-5483-6678-1629-2416-3013-4994-4180-7709-1194-2769-2063-5619-2660-8551-597-2931-896-5972-896-9093 0-3122 299-6135 896-9094 570-2905 1439-5700 2606-8442 0-27 27-81 54-109 1167-2742 2579-5293 4180-7709 1602-2416 3447-4642 5483-6678 2036-2063 4262-3882 6678-5483 2416-1628 4995-3013 7709-4180 2769-1194 5619-2063 8550-2660zm11075 5945v13789h13139c-3447-4560-7818-9148-13139-13789zm0 17753v18676h22775c-515-6135-2796-12351-6868-18676h-15907zm0 22639v18676h16586c3936-6189 6026-12406 6270-18676h-22857zm0 22639v13953c5619-4615 10234-9283 13817-13953h-13817zm-3963 13953V69870h-13817c3556 4669 8171 9338 13817 13953zm0-17916V47231h-22856c244 6270 2362 12487 6270 18676h16586zm0-22639V24592h-15907c-4072 6325-6352 12541-6867 18676h22774zm0-22639V6840c-5320 4641-9691 9229-13139 13789h13139zM74809 221242h51151c137 8855 3774 16772 13656 23017H61151c7898-5738 13687-12700 13656-23017h1zm25574-26788c3996 0 7243 3243 7243 7244 0 3996-3246 7239-7243 7239-3998 0-7244-3243-7244-7239 0-4002 3246-7244 7244-7244zM13618 82835h173530c2744 0 4989 2243 4989 4985v97112c0 2742-2248 4985-4989 4985H13618c-2742 0-4985-2243-4985-4985V87819c0-2744 2243-4985 4985-4985v1z"/></svg>